<?xml version="1.0" encoding="utf-8"?>
<!-- Generator: Adobe Illustrator 16.0.0, SVG Export Plug-In . SVG Version: 6.00 Build 0)  -->
<!DOCTYPE svg PUBLIC "-//W3C//DTD SVG 1.1//EN" "http://www.w3.org/Graphics/SVG/1.1/DTD/svg11.dtd">
<svg version="1.1" id="Слой_1" xmlns="http://www.w3.org/2000/svg" xmlns:xlink="http://www.w3.org/1999/xlink" x="0px" y="0px"
	 width="24px" height="24px" viewBox="0 0 24 24" enable-background="new 0 0 24 24" xml:space="preserve">
<g>
	<path fill="#33495E" d="M0,0v24h24V0H0z M22.5,1.5V3H1.499V1.5H22.5z M1.499,22.501V4.5H22.5v18.001H1.499z"/>
	<rect x="6" y="18.75" fill="#33495E" width="1.499" height="1.5"/>
	<rect x="6" y="15.75" fill="#33495E" width="1.499" height="1.5"/>
	<rect x="6" y="12.751" fill="#33495E" width="1.499" height="1.499"/>
	<rect x="6" y="9.75" fill="#33495E" width="1.499" height="1.5"/>
	<rect x="6" y="6.75" fill="#33495E" width="1.499" height="1.499"/>
	<polygon fill="#33495E" points="15.219,11.78 16.189,12.751 9,12.751 9,14.25 16.188,14.25 15.219,15.221 16.28,16.28 19.057,13.5 
		16.28,10.719 	"/>
</g>
</svg>
