<?xml version="1.0" encoding="utf-8"?>
<!-- Generator: Adobe Illustrator 16.0.0, SVG Export Plug-In . SVG Version: 6.00 Build 0)  -->
<!DOCTYPE svg PUBLIC "-//W3C//DTD SVG 1.1//EN" "http://www.w3.org/Graphics/SVG/1.1/DTD/svg11.dtd">
<svg version="1.1" id="Слой_1" xmlns="http://www.w3.org/2000/svg" xmlns:xlink="http://www.w3.org/1999/xlink" x="0px" y="0px"
	 width="24px" height="24px" viewBox="0 0 24 24" enable-background="new 0 0 24 24" xml:space="preserve">
<g>
	<path fill="#33495E" d="M0,0v24h24V0H0z M22.501,1.5V3h-21V1.5H22.501z M1.5,22.501V4.5h21v18.001H1.5z"/>
	<rect x="16.5" y="6.75" fill="#33495E" width="1.501" height="1.499"/>
	<rect x="16.5" y="9.75" fill="#33495E" width="1.501" height="1.5"/>
	<rect x="16.5" y="12.751" fill="#33495E" width="1.501" height="1.499"/>
	<rect x="16.5" y="15.75" fill="#33495E" width="1.501" height="1.5"/>
	<rect x="16.5" y="18.75" fill="#33495E" width="1.501" height="1.5"/>
	<polygon fill="#33495E" points="9.533,11.78 8.469,10.719 5.693,13.5 8.469,16.28 9.533,15.221 8.56,14.25 15,14.25 15,12.751 
		8.56,12.751 	"/>
</g>
</svg>
