<?xml version="1.0" encoding="utf-8"?>
<!-- Generator: Adobe Illustrator 16.0.0, SVG Export Plug-In . SVG Version: 6.00 Build 0)  -->
<!DOCTYPE svg PUBLIC "-//W3C//DTD SVG 1.1//EN" "http://www.w3.org/Graphics/SVG/1.1/DTD/svg11.dtd">
<svg version="1.1" id="Слой_1" xmlns="http://www.w3.org/2000/svg" xmlns:xlink="http://www.w3.org/1999/xlink" x="0px" y="0px"
	 width="24px" height="24px" viewBox="0 0 24 24" enable-background="new 0 0 24 24" xml:space="preserve">
<g>
	<path fill-rule="evenodd" clip-rule="evenodd" fill="#3D5F74" d="M1.499,22.502H4.5V12h15v10.501h2.998V4.811l-2.998-3V9h-15V1.499
		H1.499V22.502L1.499,22.502z M16.497,20.248H7.499V18.75h8.999V20.248L16.497,20.248z M16.497,17.25H7.499v-1.502h8.999V17.25
		L16.497,17.25z M16.497,5.999h-1.498V3h1.498V5.999L16.497,5.999z M5.999,22.502h11.999v-9H5.999V22.502L5.999,22.502z
		 M17.998,1.499H5.999V7.5h11.999V1.499L17.998,1.499z M24,24h-4.5h-15H0V0h19.809L24,4.188V24L24,24z"/>
</g>
</svg>
