<?xml version="1.0" encoding="utf-8"?>
<!-- Generator: Adobe Illustrator 16.0.0, SVG Export Plug-In . SVG Version: 6.00 Build 0)  -->
<!DOCTYPE svg PUBLIC "-//W3C//DTD SVG 1.1//EN" "http://www.w3.org/Graphics/SVG/1.1/DTD/svg11.dtd">
<svg version="1.1" id="Слой_1" xmlns="http://www.w3.org/2000/svg" xmlns:xlink="http://www.w3.org/1999/xlink" x="0px" y="0px"
	 width="24px" height="24px" viewBox="0 0 24 24" enable-background="new 0 0 24 24" xml:space="preserve">
<path fill="#3D5F74" d="M18.359,3.372c-0.195-1.01-1.196-1.785-2.641-2.326c-1.73-0.651-4.138-0.983-6.52-0.983
	c-2.381,0-4.787,0.332-6.518,0.983C1.232,1.587,0.233,2.363,0.038,3.372C0.023,3.506,0.001,3.645,0.003,3.779
	c0,5.379,0,10.76-0.003,16.137c0,0.292,0.008,0.453,0.037,0.736c0.195,1.014,1.196,1.783,2.643,2.326
	c1.731,0.647,4.138,0.988,6.518,0.988c2.383,0,4.79-0.341,6.52-0.988c1.445-0.543,2.446-1.312,2.642-2.326l0.037-0.363
	C18.379,14.648,18.375,9.01,18.359,3.372z M16.805,20.32c-1.266,0.777-2.734,1.248-4.188,1.531
	c-2.279,0.438-4.726,0.422-6.998-0.057c-1.373-0.284-2.75-0.746-3.957-1.475c0-0.754,0-1.508,0-2.262
	c0.104,0.332,0.92,0.852,2.289,1.354c0.659,0.234,1.44,0.454,2.323,0.607c1.933,0.332,3.975,0.34,5.906,0.008
	c0.884-0.153,1.664-0.373,2.327-0.607c1.464-0.541,2.298-1.102,2.298-1.434C16.805,18.764,16.805,19.543,16.805,20.32z
	 M16.805,17.152c-1.27,0.754-2.746,1.19-4.188,1.459c-2.285,0.412-4.72,0.396-6.998-0.049c-1.363-0.275-2.752-0.697-3.957-1.402
	c0-0.754,0-1.508,0-2.27c0.104,0.332,0.92,0.834,2.289,1.305c0.659,0.228,1.44,0.43,2.323,0.576
	c1.935,0.324,3.971,0.332,5.906,0.008c0.882-0.146,1.664-0.35,2.327-0.575c1.464-0.511,2.298-1.045,2.298-1.377
	C16.805,15.605,16.805,16.382,16.805,17.152z M16.805,13.992c-1.277,0.721-2.748,1.127-4.188,1.378
	c-2.287,0.389-4.718,0.372-6.998-0.05c-1.363-0.25-2.738-0.647-3.957-1.319c0-0.759,0-1.515,0-2.272
	c0.104,0.333,0.92,0.813,2.289,1.26c0.659,0.213,1.44,0.403,2.323,0.54c1.937,0.301,3.969,0.305,5.906,0.005
	c0.882-0.138,1.664-0.326,2.327-0.541c1.464-0.479,2.298-0.999,2.298-1.331C16.805,12.438,16.805,13.216,16.805,13.992z
	 M16.805,10.83c-1.277,0.697-2.761,1.067-4.188,1.296c-2.291,0.365-4.714,0.354-6.998-0.039c-1.357-0.233-2.736-0.599-3.957-1.252
	c0-0.753,0-1.511,0-2.267c0.104,0.329,0.92,0.791,2.289,1.209c0.659,0.201,1.44,0.381,2.323,0.509
	c1.941,0.279,3.965,0.281,5.906,0.002c0.882-0.127,1.664-0.306,2.327-0.509c1.464-0.449,2.298-0.947,2.298-1.279
	C16.805,9.276,16.805,10.054,16.805,10.83z M16.805,7.667c-1.285,0.667-2.765,1.005-4.188,1.216
	c-2.305,0.34-4.698,0.332-6.998-0.033c-1.351-0.215-2.73-0.553-3.957-1.175c0-0.756,0-1.511,0-2.269
	c0.153,0.217,0.92,0.77,2.289,1.161c0.659,0.192,1.44,0.36,2.323,0.478c1.947,0.255,3.959,0.255,5.906,0
	c0.882-0.118,1.664-0.286,2.327-0.477c1.464-0.421,2.298-0.899,2.298-1.233C16.805,6.113,16.805,6.891,16.805,7.667z"/>
<path fill="#3D5F74" d="M18.001,23.968c3.308,0,5.997-2.683,5.997-5.979c0-3.295-2.689-5.975-5.997-5.975c-3.313,0-6,2.68-6,5.975
	C12.001,21.285,14.688,23.968,18.001,23.968L18.001,23.968z"/>
<path fill="#FFFFFF" d="M18.001,13.506c2.481,0,4.5,2.01,4.5,4.48c0,2.472-2.019,4.481-4.5,4.481s-4.5-2.01-4.5-4.481
	C13.501,15.516,15.52,13.506,18.001,13.506L18.001,13.506z"/>
<polygon fill="#3D5F74" points="17.252,20.232 18.749,20.232 18.749,18.732 20.247,18.732 20.247,17.242 18.749,17.242 
	18.749,15.75 17.252,15.75 17.252,17.242 15.751,17.242 15.751,18.732 17.252,18.732 "/>
</svg>
