<?xml version="1.0" encoding="utf-8"?>
<!-- Generator: Adobe Illustrator 16.0.0, SVG Export Plug-In . SVG Version: 6.00 Build 0)  -->
<!DOCTYPE svg PUBLIC "-//W3C//DTD SVG 1.1//EN" "http://www.w3.org/Graphics/SVG/1.1/DTD/svg11.dtd">
<svg version="1.1" id="Слой_1" xmlns="http://www.w3.org/2000/svg" xmlns:xlink="http://www.w3.org/1999/xlink" x="0px" y="0px"
	 width="24px" height="24px" viewBox="0 0 24 24" enable-background="new 0 0 24 24" xml:space="preserve">
<path fill-rule="evenodd" clip-rule="evenodd" fill="#3D5F74" d="M10.499,20.91H0V2.968h11.687l3.003-2.989H24v10.464h-1.498v-8.97
	h-7.193l-2.996,2.989H1.5v14.955h8.999V20.91L10.499,20.91z M18.75,20.162h-1.498v-1.498h-1.504v-1.493h1.504v-1.493h1.498v1.493
	h1.498v1.493H18.75V20.162L18.75,20.162z M18.002,13.432c-2.482,0-4.5,2.011-4.5,4.484s2.018,4.484,4.5,4.484s4.5-2.011,4.5-4.484
	S20.484,13.432,18.002,13.432L18.002,13.432z M18.002,23.901c-3.313,0-6.002-2.685-6.002-5.985c0-3.297,2.689-5.977,6.002-5.977
	c3.305,0,5.998,2.68,5.998,5.977C24,21.217,21.307,23.901,18.002,23.901L18.002,23.901z"/>
</svg>
