<?xml version="1.0" encoding="utf-8"?>
<!-- Generator: Adobe Illustrator 16.0.0, SVG Export Plug-In . SVG Version: 6.00 Build 0)  -->
<!DOCTYPE svg PUBLIC "-//W3C//DTD SVG 1.1//EN" "http://www.w3.org/Graphics/SVG/1.1/DTD/svg11.dtd">
<svg version="1.1" id="Слой_1" xmlns="http://www.w3.org/2000/svg" xmlns:xlink="http://www.w3.org/1999/xlink" x="0px" y="0px"
	 width="24px" height="24px" viewBox="0 0 24 24" enable-background="new 0 0 24 24" xml:space="preserve">
<g>
	<path fill-rule="evenodd" clip-rule="evenodd" fill="#3D5F74" d="M1.807,8.275l8.802,1.293l8.8-1.293v-5.05H1.807V8.275
		L1.807,8.275z M10.609,10.965L0.551,9.488V1.84h20.116v7.648L10.609,10.965L10.609,10.965z"/>
	<polygon fill-rule="evenodd" clip-rule="evenodd" fill="#3D5F74" points="20.667,18.036 0.551,18.036 0.551,8.882 1.807,8.882 
		1.807,16.653 19.409,16.653 19.409,8.882 20.667,8.882 20.667,18.036 	"/>
	<polygon fill-rule="evenodd" clip-rule="evenodd" fill="#3D5F74" points="11.237,12.347 9.979,12.347 9.979,8.19 11.237,8.19 
		11.237,12.347 	"/>
	<path fill-rule="evenodd" clip-rule="evenodd" fill="#3D5F74" d="M8.472,1.298c-0.354,0-0.64,0.291-0.64,0.644v0.915H6.554V1.942
		c0-1.057,0.858-1.925,1.918-1.925h4.27c1.063,0,1.922,0.868,1.922,1.925v0.915h-1.278V1.942c0-0.353-0.286-0.644-0.644-0.644H8.472
		L8.472,1.298z"/>
	<path fill-rule="evenodd" clip-rule="evenodd" fill="#3D5F74" d="M17.999,23.982c3.207,0,5.815-2.617,5.815-5.842
		c0-3.215-2.608-5.833-5.815-5.833s-5.816,2.618-5.816,5.833C12.183,21.365,14.792,23.982,17.999,23.982L17.999,23.982z"/>
	<path fill-rule="evenodd" clip-rule="evenodd" fill="#FFFFFF" d="M17.999,13.767c2.403,0,4.361,1.96,4.361,4.374
		c0,2.412-1.958,4.375-4.361,4.375s-4.361-1.963-4.361-4.375C13.638,15.727,15.596,13.767,17.999,13.767L17.999,13.767z"/>
	<polygon fill-rule="evenodd" clip-rule="evenodd" fill="#3D5F74" points="17.274,20.332 18.726,20.332 18.726,18.872 20.18,18.872 
		20.18,17.413 18.726,17.413 18.726,15.956 17.274,15.956 17.274,17.413 15.816,17.413 15.816,18.872 17.274,18.872 17.274,20.332 	
		"/>
</g>
</svg>
