<?xml version="1.0" encoding="utf-8"?>
<!-- Generator: Adobe Illustrator 16.0.0, SVG Export Plug-In . SVG Version: 6.00 Build 0)  -->
<!DOCTYPE svg PUBLIC "-//W3C//DTD SVG 1.1//EN" "http://www.w3.org/Graphics/SVG/1.1/DTD/svg11.dtd">
<svg version="1.1" id="Слой_1" xmlns="http://www.w3.org/2000/svg" xmlns:xlink="http://www.w3.org/1999/xlink" x="0px" y="0px"
	 width="24px" height="24px" viewBox="0 0 24 24" enable-background="new 0 0 24 24" xml:space="preserve">
<path fill-rule="evenodd" clip-rule="evenodd" fill="#3D5F74" d="M6.012,6.763l4.673,0.708l4.555-0.708V4.349H6.012V6.763
	L6.012,6.763z M10.685,8.366l-5.524-0.81V3.37h11.047v4.187L10.685,8.366L10.685,8.366z"/>
<polygon fill-rule="evenodd" clip-rule="evenodd" fill="#3D5F74" points="16.208,12.238 5.161,12.238 5.161,7.225 5.971,7.225 
	5.971,11.221 15.299,11.221 15.299,7.225 16.208,7.225 16.208,12.238 "/>
<polygon fill-rule="evenodd" clip-rule="evenodd" fill="#3D5F74" points="11.11,9.124 10.28,9.124 10.28,6.847 11.11,6.847 
	11.11,9.124 "/>
<path fill-rule="evenodd" clip-rule="evenodd" fill="#3D5F74" d="M9.513,3.073c-0.195,0-0.354,0.163-0.354,0.354v0.5h-0.7v-0.5
	c0-0.578,0.47-1.054,1.054-1.054h2.343c0.582,0,1.056,0.476,1.056,1.054v0.5h-0.704v-0.5c0-0.191-0.157-0.354-0.352-0.354H9.513
	L9.513,3.073z"/>
<path fill-rule="evenodd" clip-rule="evenodd" fill="#3D5F74" d="M1.337,14.688h18.696V1.333H1.337V14.688L1.337,14.688z
	 M21.369,16.027H0V0h21.369V16.027L21.369,16.027z"/>
<polygon fill-rule="evenodd" clip-rule="evenodd" fill="#3D5F74" points="11.352,21.363 10.018,21.363 10.018,15.355 11.352,15.355 
	11.352,21.363 "/>
<polygon fill-rule="evenodd" clip-rule="evenodd" fill="#3D5F74" points="5.343,21.363 4.006,21.363 4.006,19.006 10.314,14.801 
	11.055,15.91 5.343,19.721 5.343,21.363 "/>
<polygon fill-rule="evenodd" clip-rule="evenodd" fill="#3D5F74" points="17.361,21.363 16.027,21.363 16.027,19.721 10.314,15.91 
	11.055,14.801 17.361,19.006 17.361,21.363 "/>
<path fill-rule="evenodd" clip-rule="evenodd" fill="#3D5F74" d="M18,24.002c3.309,0,6-2.693,6-6.008c0-3.307-2.691-5.998-6-5.998
	c-3.308,0-6.001,2.691-6.001,5.998C11.999,21.309,14.692,24.002,18,24.002L18,24.002z"/>
<path fill-rule="evenodd" clip-rule="evenodd" fill="#FFFFFF" d="M18,13.496c2.48,0,4.5,2.018,4.5,4.498c0,2.482-2.02,4.5-4.5,4.5
	c-2.481,0-4.5-2.018-4.5-4.5C13.5,15.514,15.519,13.496,18,13.496L18,13.496z"/>
<polygon fill-rule="evenodd" clip-rule="evenodd" fill="#3D5F74" points="17.25,20.25 18.749,20.25 18.749,18.746 20.25,18.746 
	20.25,17.246 18.749,17.246 18.749,15.75 17.25,15.75 17.25,17.246 15.75,17.246 15.75,18.746 17.25,18.746 17.25,20.25 "/>
</svg>
