<?xml version="1.0" encoding="utf-8"?>
<!-- Generator: Adobe Illustrator 16.0.0, SVG Export Plug-In . SVG Version: 6.00 Build 0)  -->
<!DOCTYPE svg PUBLIC "-//W3C//DTD SVG 1.1//EN" "http://www.w3.org/Graphics/SVG/1.1/DTD/svg11.dtd">
<svg version="1.1" id="Слой_1" xmlns="http://www.w3.org/2000/svg" xmlns:xlink="http://www.w3.org/1999/xlink" x="0px" y="0px"
	 width="24px" height="24px" viewBox="0 0 24 24" enable-background="new 0 0 24 24" xml:space="preserve">
<path fill-rule="evenodd" clip-rule="evenodd" fill="#3D5F74" d="M9.204,1.844c-2.094,0-3.84,0.263-5.125,0.629
	C2.654,2.881,1.846,3.356,1.846,3.689s0.808,0.806,2.232,1.217C5.362,5.275,7.11,5.537,9.204,5.537s3.839-0.262,5.124-0.631
	c1.424-0.411,2.23-0.883,2.23-1.217s-0.807-0.808-2.23-1.217C13.043,2.106,11.298,1.844,9.204,1.844L9.204,1.844z M1.856,9.155
	c-0.008,0.024-0.01,0.049-0.01,0.071c0,0.022,0.002,0.045,0.01,0.069v0.167c0.102,0.328,0.893,0.765,2.222,1.146
	c1.286,0.37,3.032,0.63,5.125,0.63s3.839-0.26,5.124-0.63c1.424-0.407,2.23-0.881,2.23-1.215V9.226V8.892V8.088v-1.2V6.03
	c-0.351,0.183-0.747,0.346-1.177,0.49c-1.695,0.57-3.944,0.863-6.176,0.863L9.204,7.385c-2.382,0-4.79-0.333-6.521-0.987
	C2.383,6.286,2.103,6.162,1.846,6.03v0.858l0.01-0.006V9.155L1.856,9.155z M1.846,11.733v1.904v1.131
	c0,0.336,0.808,0.811,2.232,1.219c1.284,0.366,3.032,0.627,5.125,0.627s3.839-0.261,5.124-0.627c1.424-0.408,2.23-0.883,2.23-1.219
	v-0.089v-0.251v-0.803v-1.892c-0.351,0.181-0.747,0.343-1.177,0.491c-1.695,0.568-3.944,0.863-6.176,0.863H9.204
	c-2.382,0-4.79-0.336-6.521-0.985C2.383,11.986,2.103,11.865,1.846,11.733L1.846,11.733z M18.402,20.309l-0.036,0.364
	c-0.195,1.018-1.196,1.792-2.644,2.337c-1.73,0.651-4.138,0.993-6.519,0.993c-2.382,0-4.79-0.342-6.521-0.993
	c-1.447-0.545-2.448-1.319-2.643-2.337c-0.028-0.285-0.035-0.446-0.035-0.741c0-5.397,0-10.801,0-16.204
	c0-0.134,0.022-0.274,0.035-0.409c0.195-1.014,1.195-1.793,2.643-2.336C4.415,0.33,6.822-0.003,9.204-0.003
	c2.38,0,4.788,0.333,6.519,0.987c1.447,0.543,2.448,1.322,2.644,2.336C18.382,8.982,18.387,14.645,18.402,20.309L18.402,20.309z
	 M16.559,17.271c-0.351,0.179-0.747,0.343-1.177,0.487c-1.695,0.571-3.944,0.863-6.176,0.863H9.204c-2.382,0-4.79-0.333-6.521-0.984
	c-0.299-0.113-0.58-0.236-0.836-0.366v3.037c0,0.332,0.808,0.806,2.232,1.21c1.284,0.367,3.032,0.628,5.125,0.628
	s3.839-0.261,5.124-0.628c1.424-0.404,2.23-0.878,2.23-1.21V17.271L16.559,17.271z"/>
<path fill-rule="evenodd" clip-rule="evenodd" fill="#3D5F74" d="M18.004,23.888c3.315,0,6.001-2.694,6.001-5.999
	c0-3.309-2.686-6.003-6.001-6.003c-3.306,0-5.999,2.695-5.999,6.003C12.005,21.193,14.698,23.888,18.004,23.888L18.004,23.888z"/>
<path fill-rule="evenodd" clip-rule="evenodd" fill="#FFFFFF" d="M18.004,13.387c2.484,0,4.503,2.018,4.503,4.502
	s-2.019,4.501-4.503,4.501c-2.479,0-4.499-2.017-4.499-4.501S15.524,13.387,18.004,13.387L18.004,13.387z"/>
<polygon fill-rule="evenodd" clip-rule="evenodd" fill="#3D5F74" points="17.256,20.137 18.758,20.137 18.758,18.639 20.254,18.639 
	20.254,17.137 18.758,17.137 18.758,15.636 17.256,15.636 17.256,17.137 15.756,17.137 15.756,18.639 17.256,18.639 17.256,20.137 
	"/>
</svg>
