<?xml version="1.0" encoding="utf-8"?>
<!-- Generator: Adobe Illustrator 16.0.0, SVG Export Plug-In . SVG Version: 6.00 Build 0)  -->
<!DOCTYPE svg PUBLIC "-//W3C//DTD SVG 1.1//EN" "http://www.w3.org/Graphics/SVG/1.1/DTD/svg11.dtd">
<svg version="1.1" id="Слой_1" xmlns="http://www.w3.org/2000/svg" xmlns:xlink="http://www.w3.org/1999/xlink" x="0px" y="0px"
	 width="24px" height="24px" viewBox="0 0 24 24" enable-background="new 0 0 24 24" xml:space="preserve">
<path fill-rule="evenodd" clip-rule="evenodd" fill="#3D5F74" d="M1.511,20.996H16.51V5.558l-4.061-4.061H1.511V20.996L1.511,20.996
	z M18.016,22.494H0.014V-0.003h13.062l4.94,4.938V22.494L18.016,22.494z"/>
<polygon fill-rule="evenodd" clip-rule="evenodd" fill="#3D5F74" points="17.258,5.997 12.009,5.997 12.009,0.748 13.515,0.748 
	13.515,4.495 17.258,4.495 17.258,5.997 "/>
<path fill-rule="evenodd" clip-rule="evenodd" fill="#3D5F74" d="M18.016,24.002c3.304,0,5.998-2.693,5.998-6.008
	c0-3.307-2.694-5.999-5.998-5.999c-3.313,0-6.007,2.692-6.007,5.999C12.009,21.309,14.703,24.002,18.016,24.002L18.016,24.002z"/>
<path fill-rule="evenodd" clip-rule="evenodd" fill="#FFFFFF" d="M18.016,13.496c2.475,0,4.5,2.016,4.5,4.498s-2.025,4.5-4.5,4.5
	c-2.481,0-4.501-2.018-4.501-4.5S15.534,13.496,18.016,13.496L18.016,13.496z"/>
<polygon fill-rule="evenodd" clip-rule="evenodd" fill="#3D5F74" points="17.258,20.25 18.765,20.25 18.765,18.746 20.262,18.746 
	20.262,17.246 18.765,17.246 18.765,15.748 17.258,15.748 17.258,17.246 15.762,17.246 15.762,18.746 17.258,18.746 17.258,20.25 
	"/>
<path fill-rule="evenodd" clip-rule="evenodd" fill="#3D5F74" d="M11.261,13.146c1.236,0,2.253-1.007,2.253-2.249
	c0-1.241-1.018-2.252-2.253-2.252H9.764v-1.5h1.498c2.074,0,3.751,1.683,3.751,3.751c0,2.067-1.685,3.75-3.751,3.75H9.764v-1.502
	H11.261L11.261,13.146z M11.261,11.647h-4.5v-1.5h4.5V11.647L11.261,11.647z M8.257,14.648H6.761c-2.068,0-3.753-1.683-3.753-3.75
	c0-2.069,1.685-3.751,3.753-3.751h1.497v1.5H6.761c-1.237,0-2.247,1.011-2.247,2.252c0,1.241,1.009,2.249,2.247,2.249h1.497V14.648
	L8.257,14.648z"/>
</svg>
