<?xml version="1.0" encoding="utf-8"?>
<!-- Generator: Adobe Illustrator 16.0.0, SVG Export Plug-In . SVG Version: 6.00 Build 0)  -->
<!DOCTYPE svg PUBLIC "-//W3C//DTD SVG 1.1//EN" "http://www.w3.org/Graphics/SVG/1.1/DTD/svg11.dtd">
<svg version="1.1" id="Слой_1" xmlns="http://www.w3.org/2000/svg" xmlns:xlink="http://www.w3.org/1999/xlink" x="0px" y="0px"
	 width="24px" height="24px" viewBox="0 0 24 24" enable-background="new 0 0 24 24" xml:space="preserve">
<path fill-rule="evenodd" clip-rule="evenodd" fill="#3D5F74" d="M1.519,20.996h14.997V5.56L12.455,1.5H1.519V20.996L1.519,20.996z
	 M18.013,22.494H0.014V0h13.059l4.939,4.937V22.494L18.013,22.494z"/>
<polygon fill-rule="evenodd" clip-rule="evenodd" fill="#3D5F74" points="17.264,5.999 12.016,5.999 12.016,0.751 13.513,0.751 
	13.513,4.498 17.264,4.498 17.264,5.999 "/>
<polygon fill-rule="evenodd" clip-rule="evenodd" fill="#3D5F74" points="6.767,5.999 3.016,5.999 3.016,4.498 6.767,4.498 
	6.767,5.999 "/>
<polygon fill-rule="evenodd" clip-rule="evenodd" fill="#3D5F74" points="15.018,10.499 3.016,10.499 3.016,8.997 15.018,8.997 
	15.018,10.499 "/>
<polygon fill-rule="evenodd" clip-rule="evenodd" fill="#3D5F74" points="15.018,13.496 3.016,13.496 3.016,11.997 15.018,11.997 
	15.018,13.496 "/>
<polygon fill-rule="evenodd" clip-rule="evenodd" fill="#3D5F74" points="15.018,16.465 3.016,16.465 3.016,14.965 15.018,14.965 
	15.018,16.465 "/>
<path fill-rule="evenodd" clip-rule="evenodd" fill="#3D5F74" d="M18.013,24c3.311,0,6.005-2.693,6.005-6.006
	c0-3.307-2.694-5.998-6.005-5.998c-3.304,0-5.997,2.691-5.997,5.998C12.016,21.307,14.709,24,18.013,24L18.013,24z"/>
<path fill-rule="evenodd" clip-rule="evenodd" fill="#FFFFFF" d="M18.013,13.496c2.481,0,4.5,2.018,4.5,4.498s-2.019,4.5-4.5,4.5
	c-2.482,0-4.5-2.02-4.5-4.5S15.53,13.496,18.013,13.496L18.013,13.496z"/>
<polygon fill-rule="evenodd" clip-rule="evenodd" fill="#3D5F74" points="17.264,20.248 18.761,20.248 18.761,18.746 20.267,18.746 
	20.267,17.246 18.761,17.246 18.761,15.75 17.264,15.75 17.264,17.246 15.767,17.246 15.767,18.746 17.264,18.746 17.264,20.248 "/>
</svg>
