<?xml version="1.0" encoding="utf-8"?>
<!-- Generator: Adobe Illustrator 16.0.0, SVG Export Plug-In . SVG Version: 6.00 Build 0)  -->
<!DOCTYPE svg PUBLIC "-//W3C//DTD SVG 1.1//EN" "http://www.w3.org/Graphics/SVG/1.1/DTD/svg11.dtd">
<svg version="1.1" id="Слой_1" xmlns="http://www.w3.org/2000/svg" xmlns:xlink="http://www.w3.org/1999/xlink" x="0px" y="0px"
	 width="24px" height="24px" viewBox="0 0 24 24" enable-background="new 0 0 24 24" xml:space="preserve">
<path fill-rule="evenodd" clip-rule="evenodd" fill="#3D5F74" d="M7.082,2.819h14.111V2.115c0-0.391-0.317-0.708-0.699-0.708H6.96
	c0.072,0.222,0.122,0.46,0.122,0.708V2.819L7.082,2.819z M2.842,19.793H1.433v0.709c0,0.381,0.317,0.699,0.701,0.699
	c0.391,0,0.708-0.318,0.708-0.699V19.793L2.842,19.793z M1.433,18.383h1.409V2.115c0-1.168,0.952-2.118,2.115-2.118h15.537
	c1.163,0,2.115,0.95,2.115,2.118v2.118h-2.823v16.269c0,1.162-0.953,2.115-2.116,2.115H2.134c-1.164,0-2.116-0.953-2.116-2.115
	v-2.119h0.708H1.433L1.433,18.383z M4.257,2.115v16.969v1.418c0,0.244-0.049,0.48-0.122,0.699H17.67
	c0.382,0,0.699-0.318,0.699-0.699V4.233H5.665V2.115c0-0.391-0.317-0.708-0.708-0.708C4.575,1.407,4.257,1.727,4.257,2.115
	L4.257,2.115z"/>
<path fill-rule="evenodd" clip-rule="evenodd" fill="#3D5F74" d="M18.02,24.002c3.313,0,5.998-2.693,5.998-6.008
	c0-3.307-2.686-5.999-5.998-5.999c-3.305,0-5.999,2.692-5.999,5.999C12.021,21.309,14.715,24.002,18.02,24.002L18.02,24.002z"/>
<path fill-rule="evenodd" clip-rule="evenodd" fill="#FFFFFF" d="M18.02,13.496c2.481,0,4.5,2.016,4.5,4.498s-2.019,4.5-4.5,4.5
	s-4.501-2.018-4.501-4.5S15.538,13.496,18.02,13.496L18.02,13.496z"/>
<polygon fill-rule="evenodd" clip-rule="evenodd" fill="#3D5F74" points="17.271,20.25 18.769,20.25 18.769,18.746 20.273,18.746 
	20.273,17.246 18.769,17.246 18.769,15.748 17.271,15.748 17.271,17.246 15.772,17.246 15.772,18.746 17.271,18.746 17.271,20.25 
	"/>
</svg>
