<?xml version="1.0" encoding="utf-8"?>
<!-- Generator: Adobe Illustrator 16.0.0, SVG Export Plug-In . SVG Version: 6.00 Build 0)  -->
<!DOCTYPE svg PUBLIC "-//W3C//DTD SVG 1.1//EN" "http://www.w3.org/Graphics/SVG/1.1/DTD/svg11.dtd">
<svg version="1.1" id="Слой_1" xmlns="http://www.w3.org/2000/svg" xmlns:xlink="http://www.w3.org/1999/xlink" x="0px" y="0px"
	 width="24px" height="24px" viewBox="0 0 24 24" enable-background="new 0 0 24 24" xml:space="preserve">
<g>
	<path fill="#3D5F74" d="M18.203,8.49V8.117V3.786h-3.715c-0.035-0.618-0.541-1.12-1.173-1.12h-2.631
		c-0.634,0-1.136,0.502-1.171,1.12H5.796v4.331v0.371v5.26h12.407V8.49z M10.685,3.453h2.631c0.196,0,0.351,0.148,0.382,0.333H10.3
		C10.332,3.602,10.488,3.453,10.685,3.453z M6.752,4.886h10.364v2.712l-4.639,0.722V7.692h-0.933v0.632L6.752,7.598V4.886z
		 M6.707,12.605V8.622l4.838,0.71v0.918h0.933V9.328l4.705-0.688v3.966H6.707z"/>
	<path fill="#3D5F74" d="M24,0H0v18.006h9.518l-5.019,3.346V24H6v-1.846l5.251-3.504V24h1.498v-5.349l5.251,3.503V24h1.498v-2.648
		l-5.017-3.346H24V0z M22.5,16.5H1.501V1.498H22.5V16.5z"/>
</g>
</svg>
