<?xml version="1.0" encoding="utf-8"?>
<!-- Generator: Adobe Illustrator 16.0.0, SVG Export Plug-In . SVG Version: 6.00 Build 0)  -->
<!DOCTYPE svg PUBLIC "-//W3C//DTD SVG 1.1//EN" "http://www.w3.org/Graphics/SVG/1.1/DTD/svg11.dtd">
<svg version="1.1" id="Слой_1" xmlns="http://www.w3.org/2000/svg" xmlns:xlink="http://www.w3.org/1999/xlink" x="0px" y="0px"
	 width="24px" height="24px" viewBox="0 0 24 24" enable-background="new 0 0 24 24" xml:space="preserve">
<path fill="#3D5F74" d="M12.001,1.844c-2.094,0-3.84,0.263-5.125,0.629C5.451,2.881,4.643,3.356,4.643,3.689
	s0.808,0.806,2.232,1.217c1.284,0.369,3.032,0.631,5.126,0.631c2.094,0,3.839-0.262,5.124-0.631c1.424-0.411,2.23-0.883,2.23-1.217
	s-0.808-0.808-2.23-1.217C15.84,2.106,14.095,1.844,12.001,1.844L12.001,1.844z M4.653,9.155c-0.008,0.024-0.01,0.049-0.01,0.071
	s0.002,0.045,0.01,0.069v0.167c0.102,0.328,0.893,0.765,2.222,1.146c1.286,0.37,3.032,0.63,5.125,0.63
	c2.093,0,3.839-0.26,5.124-0.63c1.424-0.407,2.229-0.881,2.229-1.215V9.226V8.892V8.088v-1.2V6.03
	c-0.351,0.183-0.746,0.346-1.177,0.49c-1.694,0.57-3.944,0.863-6.176,0.863v0.002c-2.382,0-4.79-0.333-6.521-0.987
	C5.18,6.286,4.9,6.162,4.643,6.03v0.858l0.01-0.006V9.155L4.653,9.155z M4.643,11.733v1.904v1.131c0,0.336,0.808,0.812,2.232,1.219
	c1.284,0.367,3.032,0.628,5.125,0.628c2.093,0,3.839-0.261,5.124-0.628c1.424-0.407,2.229-0.883,2.229-1.219V14.68v-0.252v-0.803
	v-1.892c-0.351,0.181-0.746,0.343-1.177,0.491c-1.694,0.568-3.944,0.863-6.176,0.863l0,0c-2.382,0-4.79-0.336-6.521-0.985
	C5.18,11.986,4.9,11.865,4.643,11.733L4.643,11.733z M21.199,20.309l-0.036,0.364c-0.195,1.019-1.196,1.792-2.644,2.337
	c-1.73,0.651-4.139,0.993-6.52,0.993c-2.382,0-4.79-0.342-6.521-0.993c-1.447-0.545-2.448-1.318-2.643-2.337
	c-0.028-0.284-0.035-0.446-0.035-0.741c0-5.396,0-10.801,0-16.204c0-0.134,0.022-0.274,0.035-0.409
	c0.195-1.014,1.195-1.793,2.643-2.336c1.733-0.653,4.14-0.986,6.522-0.986c2.38,0,4.788,0.333,6.519,0.987
	c1.447,0.543,2.448,1.322,2.645,2.336C21.179,8.982,21.184,14.645,21.199,20.309L21.199,20.309z M19.355,17.271
	c-0.351,0.179-0.746,0.343-1.177,0.486c-1.694,0.571-3.944,0.863-6.176,0.863h-0.002c-2.382,0-4.79-0.333-6.521-0.984
	C5.181,17.523,4.9,17.4,4.644,17.271v3.037c0,0.332,0.808,0.806,2.232,1.209c1.284,0.367,3.032,0.629,5.125,0.629
	c2.093,0,3.839-0.262,5.124-0.629c1.424-0.403,2.23-0.877,2.23-1.209V17.271L19.355,17.271z"/>
</svg>
