<?xml version="1.0" encoding="utf-8"?>
<!-- Generator: Adobe Illustrator 16.0.0, SVG Export Plug-In . SVG Version: 6.00 Build 0)  -->
<!DOCTYPE svg PUBLIC "-//W3C//DTD SVG 1.1//EN" "http://www.w3.org/Graphics/SVG/1.1/DTD/svg11.dtd">
<svg version="1.1" id="Слой_1" xmlns="http://www.w3.org/2000/svg" xmlns:xlink="http://www.w3.org/1999/xlink" x="0px" y="0px"
	 width="24px" height="24px" viewBox="0 0 24 24" enable-background="new 0 0 24 24" xml:space="preserve">
<g>
	<path fill="#3D5F74" d="M8.083,13.895c1.032,0.386,2.467,0.588,3.883,0.588c1.417,0,2.852-0.202,3.875-0.588
		c0.869-0.323,1.463-0.786,1.573-1.39l0.028-0.221l-0.028-6.813c-0.11-0.604-0.704-1.067-1.573-1.392
		c-1.022-0.388-2.458-0.586-3.875-0.586c-1.416,0-2.85,0.198-3.883,0.586C7.223,4.402,6.629,4.868,6.511,5.472
		c0,0.08-0.019,0.163-0.019,0.243c0,0.526,0,6.349,0,6.349c0,0.175,0.011,0.27,0.019,0.441C6.629,13.107,7.223,13.571,8.083,13.895z
		 M16.343,12.284c0,0.2-0.485,0.481-1.334,0.727c-0.757,0.217-1.8,0.373-3.043,0.373c-1.242,0-2.284-0.156-3.052-0.373
		c-0.849-0.245-1.324-0.528-1.324-0.727v-1.807c0.156,0.079,0.32,0.153,0.493,0.219c1.032,0.387,2.467,0.586,3.883,0.586
		c1.326,0,2.668-0.174,3.673-0.514c0.256-0.087,0.496-0.182,0.704-0.292V12.284z M8.914,4.965c0.768-0.219,1.81-0.374,3.052-0.374
		c1.244,0,2.287,0.155,3.043,0.374c0.849,0.245,1.334,0.526,1.334,0.725c0,0.199-0.485,0.481-1.334,0.725
		c-0.757,0.217-1.8,0.375-3.043,0.375c-1.242,0-2.284-0.158-3.052-0.375C8.064,6.17,7.588,5.889,7.588,5.689
		C7.588,5.491,8.074,5.21,8.914,4.965z M7.589,9.092V8.316V7.082C7.746,7.16,7.91,7.234,8.083,7.3
		c1.032,0.389,2.467,0.586,3.883,0.586V7.885c1.326,0,2.668-0.173,3.673-0.511c0.256-0.087,0.496-0.182,0.704-0.292v1.226v0.479
		v0.297c0,0.199-0.485,0.479-1.334,0.722c-0.757,0.219-1.8,0.377-3.043,0.377c-1.242,0-2.284-0.158-3.052-0.377
		C8.081,9.568,7.598,9.29,7.589,9.092L7.589,9.092z"/>
	<path fill="#3D5F74" d="M23.966-0.015h-24V17.99h9.516l-5.019,3.347v2.648h1.499v-1.845l5.254-3.505v5.35h1.499v-5.344l5.245,3.499
		v1.845h1.499v-2.648L14.44,17.99h9.525V-0.015z M22.466,16.488H1.465V1.486h21.001V16.488z"/>
</g>
</svg>
