<?xml version="1.0" encoding="utf-8"?>
<!-- Generator: Adobe Illustrator 16.0.0, SVG Export Plug-In . SVG Version: 6.00 Build 0)  -->
<!DOCTYPE svg PUBLIC "-//W3C//DTD SVG 1.1//EN" "http://www.w3.org/Graphics/SVG/1.1/DTD/svg11.dtd">
<svg version="1.1" id="Слой_1" xmlns="http://www.w3.org/2000/svg" xmlns:xlink="http://www.w3.org/1999/xlink" x="0px" y="0px"
	 width="24px" height="24px" viewBox="0 0 24 24" enable-background="new 0 0 24 24" xml:space="preserve">
<path fill="#3D5F74" d="M7.504,3.021h14.992V2.274c0-0.415-0.338-0.751-0.742-0.751H7.375c0.076,0.235,0.129,0.488,0.129,0.751
	V3.021L7.504,3.021z M3,21.03H1.503v0.752c0,0.404,0.337,0.742,0.745,0.742C2.663,22.524,3,22.187,3,21.782V21.03L3,21.03z
	 M1.503,19.534H3V2.274c0-1.24,1.011-2.248,2.247-2.248h16.507C22.987,0.027,24,1.035,24,2.274v2.247h-2.999v17.261
	c0,1.233-1.013,2.245-2.247,2.245H2.248C1.011,24.027,0,23.016,0,21.782v-2.248h0.752H1.503L1.503,19.534z M4.503,2.274v18.004
	v1.504c0,0.26-0.052,0.51-0.13,0.742h14.381c0.404,0,0.743-0.338,0.743-0.742V4.521H5.999V2.274c0-0.415-0.336-0.751-0.752-0.751
	C4.841,1.523,4.503,1.862,4.503,2.274L4.503,2.274z"/>
</svg>
