<svg height="512" viewBox="0 0 512 512" width="512" xmlns="http://www.w3.org/2000/svg"><g id="Out_line" data-name="Out line"><path d="m488 136h-48v16h27.43341l-172.4378 158.06836-74.8794-44.92871a8.00511 8.00511 0 0 0 -9.11377.61328l-160 128 9.99512 12.49414 155.65625-124.52539 75.23 45.13867a8.00131 8.00131 0 0 0 9.522-.96289l178.59419-163.71146v29.814h16v-48a8.00008 8.00008 0 0 0 -8-8z"/><path d="m488 232a8.00008 8.00008 0 0 0 -8-8h-48a8.00008 8.00008 0 0 0 -8 8v224h-16v-120a8.00008 8.00008 0 0 0 -8-8h-48a8.00008 8.00008 0 0 0 -8 8v120h-16v-104a8.00008 8.00008 0 0 0 -8-8h-48a8.00008 8.00008 0 0 0 -8 8v104h-16v-136a8.00008 8.00008 0 0 0 -8-8h-48a8.00008 8.00008 0 0 0 -8 8v136h-16v-56a8.00008 8.00008 0 0 0 -8-8h-48a8.00008 8.00008 0 0 0 -8 8v56h-16v-24a8.00008 8.00008 0 0 0 -8-8h-48a8.00008 8.00008 0 0 0 -8 8v24h-8v16h480v-16h-8zm-48 8h32v216h-32zm-80 104h32v112h-32zm-80 16h32v96h-32zm-80-32h32v128h-32zm-80 80h32v48h-32zm-80 32h32v16h-32z"/><path d="m269.43994 273.5918a129.32829 129.32829 0 0 0 1.43213-42.64844l-15.85937 2.11328a113.33168 113.33168 0 0 1 -1.25342 37.35156z"/><path d="m67.18311 350.39551 9.61035-12.791a111.05921 111.05921 0 0 1 -44.50452-81.60451h97.85461l-43.8789 76 13.85644 8 45.59406-78.9707 16.62811 16.62793 11.31348-11.31446-20.73389-20.73388 27.71771-103.45459a111.29347 111.29347 0 0 1 23.087 11.082l8.54492-13.52735a128.01167 128.01167 0 0 0 -145.08937 210.68656zm57.50274-110.39551h-92.39709a111.53372 111.53372 0 0 1 27.09624-65.30054zm40.49695-101.97632-25.32422 94.521-69.15967-69.15918a111.81011 111.81011 0 0 1 94.48389-25.36182z"/><path d="m184.60889 195.06152a8.00015 8.00015 0 0 0 7.39111 4.93848h32v8a8.00008 8.00008 0 0 0 8 8h144a8.00008 8.00008 0 0 0 8-8v-160a8.00008 8.00008 0 0 0 -8-8h-144a8.00008 8.00008 0 0 0 -8 8v100.68652l-37.65674 37.65625a8.00061 8.00061 0 0 0 -1.73437 8.71875zm53.04785-37.40429a8.00076 8.00076 0 0 0 2.34326-5.65723v-96h128v144h-128v-8a8.00008 8.00008 0 0 0 -8-8h-20.686z"/><path d="m272 72h32v16h-32z"/><path d="m320 72h32v16h-32z"/><path d="m256 104h32v16h-32z"/><path d="m304 104h48v16h-48z"/><path d="m256 136h64v16h-64z"/><path d="m336 136h16v16h-16z"/><path d="m256 168h48v16h-48z"/></g></svg>