<?xml version="1.0" encoding="utf-8"?>
<!-- Generator: Adobe Illustrator 16.0.0, SVG Export Plug-In . SVG Version: 6.00 Build 0)  -->
<!DOCTYPE svg PUBLIC "-//W3C//DTD SVG 1.1//EN" "http://www.w3.org/Graphics/SVG/1.1/DTD/svg11.dtd">
<svg version="1.1" id="Слой_1" xmlns="http://www.w3.org/2000/svg" xmlns:xlink="http://www.w3.org/1999/xlink" x="0px" y="0px"
	 width="24px" height="24px" viewBox="0 0 24 24" enable-background="new 0 0 24 24" xml:space="preserve">
<path fill-rule="evenodd" clip-rule="evenodd" fill="#3D5F74" d="M10.69,4.097c-1.106,0-2.034,0.138-2.718,0.333
	C7.224,4.648,6.792,4.898,6.792,5.075S7.216,5.503,7.972,5.72c0.684,0.193,1.612,0.333,2.718,0.333c1.107,0,2.036-0.14,2.71-0.333
	c0.756-0.217,1.188-0.468,1.188-0.645S14.156,4.648,13.4,4.43C12.726,4.235,11.797,4.097,10.69,4.097L10.69,4.097z M14.588,9.336
	c-0.186,0.098-0.398,0.183-0.627,0.26c-0.895,0.303-2.09,0.458-3.271,0.458l0,0c-1.261,0-2.539-0.177-3.458-0.522
	c-0.154-0.059-0.3-0.125-0.439-0.195v1.609c0,0.177,0.423,0.428,1.179,0.646c0.684,0.193,1.612,0.332,2.718,0.332
	c1.107,0,2.036-0.139,2.71-0.332c0.756-0.218,1.188-0.468,1.188-0.646V9.336L14.588,9.336z M6.792,8.104
	C6.801,8.28,7.231,8.528,7.972,8.739c0.684,0.195,1.612,0.336,2.718,0.336c1.107,0,2.036-0.141,2.71-0.336
	c0.756-0.216,1.188-0.466,1.188-0.643V7.832V7.405V6.314c-0.186,0.098-0.398,0.183-0.627,0.26c-0.895,0.301-2.09,0.456-3.271,0.456
	v0.001c-1.261,0-2.539-0.176-3.458-0.522c-0.154-0.059-0.3-0.125-0.439-0.195v1.099l0,0V8.104L6.792,8.104L6.792,8.104z
	 M10.69,12.903c-1.261,0-2.539-0.18-3.458-0.523c-0.765-0.289-1.294-0.702-1.399-1.239c-0.008-0.152-0.017-0.236-0.017-0.392
	c0,0,0-5.183,0-5.652c0-0.071,0.017-0.145,0.017-0.216c0.105-0.537,0.634-0.952,1.399-1.239c0.92-0.346,2.197-0.522,3.458-0.522
	s2.541,0.177,3.451,0.522c0.773,0.289,1.303,0.702,1.4,1.239l0.025,6.065l-0.025,0.195c-0.098,0.538-0.627,0.95-1.4,1.239
	C13.23,12.723,11.951,12.903,10.69,12.903L10.69,12.903z"/>
<path fill-rule="evenodd" clip-rule="evenodd" fill="#3D5F74" d="M1.339,14.688h18.702V1.332H1.339V14.688L1.339,14.688z
	 M21.377,16.025H0.004V-0.003h21.373V16.025L21.377,16.025z"/>
<polygon fill-rule="evenodd" clip-rule="evenodd" fill="#3D5F74" points="11.358,21.363 10.023,21.363 10.023,15.355 11.358,15.355 
	11.358,21.363 "/>
<polygon fill-rule="evenodd" clip-rule="evenodd" fill="#3D5F74" points="5.344,21.363 4.009,21.363 4.009,19.004 10.316,14.801 
	11.057,15.91 5.344,19.721 5.344,21.363 "/>
<polygon fill-rule="evenodd" clip-rule="evenodd" fill="#3D5F74" points="17.363,21.363 16.029,21.363 16.029,19.721 10.316,15.91 
	11.057,14.801 17.363,19.004 17.363,21.363 "/>
<path fill-rule="evenodd" clip-rule="evenodd" fill="#3D5F74" d="M18.008,24.002c3.305,0,5.996-2.693,5.996-6.008
	c0-3.307-2.691-5.999-5.996-5.999c-3.313,0-6.007,2.692-6.007,5.999C12.001,21.309,14.695,24.002,18.008,24.002L18.008,24.002z"/>
<path fill-rule="evenodd" clip-rule="evenodd" fill="#FFFFFF" d="M18.008,13.496c2.48,0,4.5,2.016,4.5,4.498s-2.02,4.5-4.5,4.5
	c-2.482,0-4.5-2.018-4.5-4.5S15.525,13.496,18.008,13.496L18.008,13.496z"/>
<polygon fill-rule="evenodd" clip-rule="evenodd" fill="#3D5F74" points="17.258,20.25 18.756,20.25 18.756,18.746 20.252,18.746 
	20.252,17.246 18.756,17.246 18.756,15.748 17.258,15.748 17.258,17.246 15.752,17.246 15.752,18.746 17.258,18.746 17.258,20.25 
	"/>
</svg>
