<?xml version="1.0" encoding="utf-8"?>
<!-- Generator: Adobe Illustrator 16.0.0, SVG Export Plug-In . SVG Version: 6.00 Build 0)  -->
<!DOCTYPE svg PUBLIC "-//W3C//DTD SVG 1.1//EN" "http://www.w3.org/Graphics/SVG/1.1/DTD/svg11.dtd">
<svg version="1.1" id="Слой_1" xmlns="http://www.w3.org/2000/svg" xmlns:xlink="http://www.w3.org/1999/xlink" x="0px" y="0px"
	 width="24px" height="24px" viewBox="0 0 24 24" enable-background="new 0 0 24 24" xml:space="preserve">
<path fill="#3D5F74" d="M21.165,3.321c-0.196-1.01-1.197-1.791-2.644-2.336C16.789,0.334,14.382,0,12,0
	C9.619,0,7.212,0.334,5.48,0.985C4.032,1.53,3.033,2.312,2.837,3.321C2.822,3.46,2.8,3.597,2.802,3.736
	c0,5.396,0,10.801-0.002,16.206c0,0.293,0.008,0.447,0.037,0.74c0.196,1.008,1.197,1.791,2.643,2.336C7.212,23.668,9.619,24,12,24
	c2.382,0,4.789-0.332,6.52-0.982c1.448-0.545,2.449-1.328,2.645-2.336l0.034-0.377C21.182,14.648,21.182,8.985,21.165,3.321z
	 M19.609,20.339c-1.269,0.781-2.736,1.254-4.191,1.539c-2.277,0.446-4.726,0.433-6.999-0.051c-1.374-0.292-2.751-0.747-3.958-1.481
	c0-0.757,0-1.512,0-2.279c0.104,0.336,0.92,0.856,2.289,1.361c0.659,0.243,1.44,0.463,2.323,0.61
	c1.933,0.342,3.976,0.351,5.907,0.006c0.885-0.153,1.664-0.362,2.326-0.608c1.467-0.537,2.303-1.099,2.303-1.434
	C19.609,18.783,19.609,19.559,19.609,20.339z M19.609,17.165c-1.271,0.757-2.748,1.196-4.191,1.456
	c-2.285,0.423-4.72,0.408-6.999-0.048c-1.364-0.271-2.753-0.692-3.958-1.401c0-0.758,0-1.521,0-2.279
	c0.104,0.336,0.92,0.84,2.289,1.313c0.659,0.228,1.44,0.433,2.323,0.576c1.935,0.317,3.972,0.325,5.907,0.01
	c0.881-0.146,1.664-0.351,2.326-0.579c1.467-0.512,2.303-1.061,2.303-1.386C19.609,15.602,19.609,16.384,19.609,17.165z
	 M19.609,13.99c-1.281,0.725-2.75,1.132-4.191,1.375c-2.287,0.4-4.719,0.384-6.999-0.041c-1.364-0.25-2.739-0.651-3.958-1.326
	c0-0.766,0-1.521,0-2.279c0.104,0.326,0.92,0.815,2.289,1.264c0.659,0.209,1.44,0.404,2.323,0.545c1.937,0.299,3.969,0.299,5.907,0
	c0.881-0.141,1.664-0.325,2.326-0.538c1.467-0.489,2.303-1.009,2.303-1.342C19.609,12.428,19.609,13.209,19.609,13.99z
	 M19.609,10.816c-1.277,0.692-2.764,1.066-4.191,1.294c-2.291,0.375-4.714,0.359-6.999-0.032c-1.357-0.235-2.737-0.602-3.958-1.262
	c0-0.756,0-1.513,0-2.271c0.104,0.326,0.92,0.79,2.289,1.213c0.659,0.204,1.44,0.382,2.323,0.504
	c1.941,0.286,3.966,0.286,5.907,0.008c0.881-0.13,1.664-0.309,2.326-0.513c1.467-0.454,2.303-0.951,2.303-1.284
	C19.609,9.254,19.609,10.035,19.609,10.816z M19.609,7.635c-1.289,0.675-2.769,1.008-4.191,1.22
	c-2.305,0.341-4.698,0.334-6.999-0.032C7.068,8.61,5.688,8.269,4.461,7.642c0-0.756,0-1.514,0-2.278
	c0.153,0.219,0.92,0.773,2.289,1.164c0.659,0.195,1.44,0.366,2.323,0.48c1.947,0.26,3.959,0.26,5.907,0
	c0.881-0.114,1.664-0.285,2.326-0.472c1.467-0.423,2.303-0.904,2.303-1.237C19.609,6.081,19.609,6.854,19.609,7.635z"/>
</svg>
