<?xml version="1.0" encoding="utf-8"?>
<!-- Generator: Adobe Illustrator 16.0.0, SVG Export Plug-In . SVG Version: 6.00 Build 0)  -->
<!DOCTYPE svg PUBLIC "-//W3C//DTD SVG 1.1//EN" "http://www.w3.org/Graphics/SVG/1.1/DTD/svg11.dtd">
<svg version="1.1" id="Слой_1" xmlns="http://www.w3.org/2000/svg" xmlns:xlink="http://www.w3.org/1999/xlink" x="0px" y="0px"
	 width="24px" height="24px" viewBox="0 0 24 24" enable-background="new 0 0 24 24" xml:space="preserve">
<path fill="#3D5F74" d="M16.826,3.425c-0.064-1.204-1.055-2.174-2.281-2.174H9.451c-1.223,0-2.211,0.97-2.276,2.174H0v8.402v0.723
	v10.2h24v-10.2v-0.723V3.425H16.826z M9.451,2.779h5.094c0.383,0,0.684,0.285,0.744,0.646H8.711
	C8.772,3.063,9.071,2.779,9.451,2.779z M1.499,5.078H22.5v6.025l-9.751,1.432v-1.534h-1.5v1.534l-9.75-1.432V5.078z M22.5,21.1
	H1.499v-8.33l9.75,1.434v1.76h1.5v-1.76L22.5,12.77V21.1z"/>
</svg>
