<?xml version="1.0" encoding="utf-8"?>
<!-- Generator: Adobe Illustrator 16.0.0, SVG Export Plug-In . SVG Version: 6.00 Build 0)  -->
<!DOCTYPE svg PUBLIC "-//W3C//DTD SVG 1.1//EN" "http://www.w3.org/Graphics/SVG/1.1/DTD/svg11.dtd">
<svg version="1.1" id="Слой_1" xmlns="http://www.w3.org/2000/svg" xmlns:xlink="http://www.w3.org/1999/xlink" x="0px" y="0px"
	 width="24px" height="24px" viewBox="0 0 24 24" enable-background="new 0 0 24 24" xml:space="preserve">
<g>
	<path fill="#3D5F74" d="M16.566,0.025H2.632v24h19.204V5.293L16.566,0.025z M17.035,2.763l2.061,2.061h-2.061V2.763z M4.228,22.428
		V1.625h11.2v4.801h4.802v16.001H4.228z"/>
	<rect x="9.829" y="12.031" fill="#3D5F74" width="4.8" height="1.6"/>
	<path fill="#3D5F74" d="M14.631,8.828h-1.598v1.6h1.596c1.318,0,2.404,1.079,2.404,2.402c0,1.326-1.085,2.4-2.404,2.4v-0.002
		h-1.596v1.602h1.598c2.204,0,4.002-1.795,4.002-4C18.633,10.624,16.844,8.828,14.631,8.828z"/>
	<path fill="#3D5F74" d="M7.432,12.833c0-1.324,1.077-2.403,2.397-2.403h1.597v-1.6H9.829c-2.206,0-4.004,1.794-4.004,4.002
		c0,2.205,1.798,4,4.004,4h1.596h0.001v-1.6H9.829C8.508,15.232,7.432,14.158,7.432,12.833z"/>
</g>
</svg>
