<svg height="438pt" viewBox="0 0 438.85714 438" width="438pt" xmlns="http://www.w3.org/2000/svg"><path d="m429.714844 185.230469h-22.402344c-1.113281-3.113281-2.371094-6.167969-3.761719-9.132813l15.824219-15.828125c3.570312-3.574219 3.570312-9.359375 0-12.929687l-36.015625-36.019532c-3.574219-3.570312-9.359375-3.570312-12.929687 0l-15.832032 15.832032c-2.964844-1.402344-6.011718-2.652344-9.128906-3.769532v-22.402343c0-5.050781-4.09375-9.140625-9.144531-9.140625h-16.324219v-63.984375c0-15.125-12.304688-27.425781-27.429688-27.425781h-217.300781l-2.667969 2.664062c-.003906.007812-.011718.007812-.015624.011719l-69.90625 69.914062-2.679688 2.675781v336.125c0 15.125 12.304688 27.429688 27.429688 27.429688h265.140624c15.125 0 27.429688-12.304688 27.429688-27.429688v-63.980468h16.324219c5.050781 0 9.144531-4.089844 9.144531-9.144532v-22.402343c3.125-1.113281 6.175781-2.363281 9.132812-3.757813l15.828126 15.820313c3.570312 3.574219 9.355468 3.574219 12.929687 0l36.019531-36.015625c1.714844-1.714844 2.679688-4.035156 2.679688-6.464844s-.964844-4.75-2.679688-6.464844l-15.828125-15.828125c1.390625-2.957031 2.644531-6.011719 3.761719-9.125h22.402344c5.046875 0 9.140625-4.089843 9.140625-9.144531v-50.9375c0-5.054688-4.09375-9.144531-9.140625-9.144531zm-397.289063-116.101563 37.480469-37.480468v29.546874c0 5.046876-4.097656 9.144532-9.136719 9.144532h-29.554687zm269.289063 342.691406c0 5.046876-4.105469 9.144532-9.144532 9.144532h-265.140624c-5.042969 0-9.144532-4.097656-9.144532-9.144532v-323.195312h42.484375c15.117188 0 27.421875-12.304688 27.421875-27.429688v-42.480468h204.378906c5.039063 0 9.144532 4.097656 9.144532 9.140625v63.984375h-16.328125c-5.046875 0-9.140625 4.089844-9.140625 9.140625v22.402343c-3.113282 1.117188-6.160156 2.367188-9.128906 3.769532l-15.832032-15.832032c-3.429687-3.425781-9.5-3.425781-12.929687 0l-36.015625 36.027344c-3.570313 3.570313-3.570313 9.359375 0 12.929688l15.824218 15.828125c-1.390624 2.957031-2.648437 6-3.757812 9.125h-22.40625c-5.050781 0-9.144531 4.089843-9.144531 9.144531v50.9375c0 5.054688 4.09375 9.144531 9.144531 9.144531h22.40625c1.117188 3.125 2.371094 6.167969 3.757812 9.125l-15.824218 15.828125c-3.570313 3.570313-3.570313 9.359375 0 12.929688l36.015625 36.015625c3.574219 3.574219 9.359375 3.574219 12.929687 0l15.832032-15.820313c2.957031 1.394532 6.007812 2.644532 9.128906 3.757813v22.402343c0 5.054688 4.09375 9.144532 9.140625 9.144532h16.328125zm118.855468-175.652343h-19.933593c-4.089844 0-7.679688 2.714843-8.792969 6.652343-1.8125 6.386719-4.316406 12.464844-7.445312 18.054688-2 3.570312-1.378907 8.035156 1.511718 10.929688l14.070313 14.070312-23.089844 23.089844-14.070313-14.070313c-2.886718-2.886719-7.351562-3.511719-10.933593-1.511719-5.578125 3.125-11.65625 5.625-18.054688 7.449219-3.933593 1.113281-6.648437 4.703125-6.648437 8.792969v19.929688h-32.652344v-19.929688c0-4.089844-2.714844-7.679688-6.648438-8.792969-6.394531-1.8125-12.472656-4.324219-18.050781-7.449219-3.578125-2-8.03125-1.375-10.933593 1.511719l-14.078126 14.070313-23.089843-23.089844 14.074219-14.070312c2.894531-2.894532 3.511718-7.359376 1.511718-10.929688-3.125-5.582031-5.625-11.652344-7.441406-18.054688-1.113281-3.9375-4.707031-6.652343-8.796875-6.652343h-19.933594v-32.648438h19.929688c4.089843 0 7.679687-2.714843 8.796875-6.652343 1.816406-6.394532 4.320312-12.464844 7.445312-18.054688 2-3.570312 1.382813-8.035156-1.511718-10.929688l-14.074219-14.070312 23.089843-23.097656 14.074219 14.070312c2.882813 2.882813 7.34375 3.507813 10.917969 1.519532 5.632812-3.144532 11.710938-5.652344 18.0625-7.449219 3.9375-1.105469 6.65625-4.703125 6.65625-8.792969v-19.9375h32.652344v19.9375c0 4.089844 2.71875 7.6875 6.65625 8.792969 6.359375 1.804687 12.4375 4.304687 18.058594 7.449219 3.578124 1.988281 8.03125 1.363281 10.921874-1.519532l14.070313-14.070312 23.089844 23.089844-14.070313 14.070312c-2.890625 2.894531-3.511718 7.355469-1.519531 10.929688 3.140625 5.605468 5.644531 11.6875 7.449219 18.0625 1.117187 3.9375 4.707031 6.652343 8.796875 6.652343h19.933593zm0 0"/><path d="m310.855469 158.695312c-33.710938 0-61.140625 27.429688-61.140625 61.144532s27.429687 61.140625 61.140625 61.140625c33.714843 0 61.144531-27.425781 61.144531-61.140625s-27.429688-61.144532-61.144531-61.144532zm0 104c-23.628907 0-42.855469-19.222656-42.855469-42.855468 0-23.632813 19.226562-42.859375 42.855469-42.859375 23.628906 0 42.859375 19.226562 42.859375 42.859375 0 23.632812-19.230469 42.855468-42.859375 42.855468zm0 0"/><path d="m54.855469 228.980469h91.429687c5.050782 0 9.144532-4.085938 9.144532-9.140625 0-5.054688-4.09375-9.144532-9.144532-9.144532h-91.429687c-5.046875 0-9.140625 4.089844-9.140625 9.144532 0 5.054687 4.09375 9.140625 9.140625 9.140625zm0 0"/><path d="m54.855469 183.269531h91.429687c5.050782 0 9.144532-4.089843 9.144532-9.144531s-4.09375-9.144531-9.144532-9.144531h-91.429687c-5.046875 0-9.140625 4.089843-9.140625 9.144531s4.09375 9.144531 9.140625 9.144531zm0 0"/><path d="m54.855469 137.554688h91.429687c5.050782 0 9.144532-4.089844 9.144532-9.144532 0-5.054687-4.09375-9.140625-9.144532-9.140625h-91.429687c-5.046875 0-9.140625 4.085938-9.140625 9.140625 0 5.054688 4.09375 9.144532 9.140625 9.144532zm0 0"/><path d="m54.855469 274.695312h91.429687c5.050782 0 9.144532-4.089843 9.144532-9.140624 0-5.054688-4.09375-9.144532-9.144532-9.144532h-91.429687c-5.046875 0-9.140625 4.089844-9.140625 9.144532 0 5.050781 4.09375 9.140624 9.140625 9.140624zm0 0"/><path d="m54.855469 320.410156h91.429687c5.050782 0 9.144532-4.089844 9.144532-9.140625 0-5.054687-4.09375-9.144531-9.144532-9.144531h-91.429687c-5.046875 0-9.140625 4.089844-9.140625 9.144531 0 5.050781 4.09375 9.140625 9.140625 9.140625zm0 0"/><path d="m201.144531 347.839844h-146.289062c-5.046875 0-9.140625 4.089844-9.140625 9.140625 0 5.054687 4.09375 9.144531 9.140625 9.144531h146.289062c5.046875 0 9.140625-4.089844 9.140625-9.144531 0-5.050781-4.09375-9.140625-9.140625-9.140625zm0 0"/></svg>